<svg width="80" height="80" viewBox="0 0 80 80" fill="none" xmlns="http://www.w3.org/2000/svg">
<path d="M52.498 50.5L50.498 55L51.998 58V59.5L52.498 61.5C53.1647 61.8333 54.598 62.5 54.998 62.5C55.398 62.5 56.498 62.8333 56.998 63C56.998 63.5 56.898 64.6 56.498 65C56.098 65.4 55.3313 65.5 54.998 65.5C54.6647 66.1667 53.998 67.6 53.998 68C53.998 68.5 53.498 70 53.498 70.5C53.498 70.9 52.498 72.6667 51.998 73.5L52.498 78C53.998 78.1667 57.098 78.5 57.498 78.5H65.498C68.1647 77.6667 73.498 75.9 73.498 75.5C73.498 75.1 75.498 74.3333 76.498 74L78.498 70L76.498 65.5L70.998 54.5L69.998 54C69.3313 54.1667 67.898 54.4 67.498 54C66.998 53.5 65.498 53.5 65.498 53C65.498 52.5 64.498 52.5 64.498 52C64.498 51.5 63.998 51 63.998 50.5V48.5C63.998 48 64.498 47.5 64.498 47C64.498 46.6 65.498 46.1667 65.998 46V44.5C65.6647 43.8333 64.998 42.4 64.998 42C64.998 41.5 63.498 40.5 62.998 40.5C62.498 40.5 60.998 40 60.498 40C60.098 40 58.6647 40.6667 57.998 41L55.998 44.5L52.498 50.5Z" fill="#FDC040"/>
<path d="M32.498 30L23.998 29.5L23.498 31.5V36L23.998 43C24.498 43.1667 25.698 43.6 26.498 44C27.498 44.5 30.498 44 30.998 44C31.498 44 37.998 43.5 38.498 43C38.998 42.5 39.498 41.5 39.998 41C40.498 40.5 40.498 39 40.498 38.5V34.5C40.498 33.5 39.998 32 39.998 31.5C39.998 31.1 38.998 30.3333 38.498 30H32.498Z" fill="#FDC040"/>
<path d="M79.4851 68.1252L71.685 52.6062C71.5203 52.2786 71.2117 52.0469 70.8512 51.9801C70.4906 51.9134 70.1195 52.0194 69.8486 52.2664C69.2979 52.7684 68.5809 53.045 67.8303 53.045C66.1717 53.045 64.8224 51.695 64.8224 50.0356C64.8224 48.6018 65.8421 47.3606 67.2473 47.0838C67.6067 47.0131 67.9123 46.7784 68.0734 46.4495C68.2346 46.1205 68.2325 45.7352 68.0681 45.4079L66.104 41.498C65.1614 39.6239 63.2726 38.4597 61.1749 38.4595C61.1747 38.4595 61.1746 38.4595 61.1744 38.4595C60.9716 38.4595 60.7718 38.4736 60.5735 38.495C60.5221 35.6001 60.4475 32.7015 60.3486 29.8575C60.2494 26.9842 59.4046 24.1778 57.9052 21.7415C57.5659 21.1902 56.8441 21.0184 56.293 21.3578C55.7419 21.697 55.57 22.4189 55.9092 22.97C57.1959 25.0608 57.9211 27.4705 58.0063 29.9388C58.1136 33.019 58.1924 36.1637 58.2434 39.298C57.4067 39.8222 56.7109 40.5725 56.2459 41.4967L50.5126 52.9045C48.293 49.4551 45.1853 46.7793 41.5598 46.7793C35.236 46.7793 30.487 54.9185 29.2811 61.1071H29.2053C28.5869 57.9336 27.0367 54.2481 24.8202 51.4092C24.8043 49.1762 24.804 46.933 24.8176 44.6852C26.0284 44.7093 27.242 44.7251 28.4589 44.7251C31.4995 44.7251 34.5525 44.6502 37.5813 44.5011C39.6346 44.4001 41.3011 42.845 41.5439 40.8036C41.8717 38.047 41.8717 35.2515 41.5439 32.4949C41.3011 30.4535 39.6348 28.8985 37.582 28.7975C33.4836 28.596 29.3333 28.5317 25.2248 28.6033C25.8357 23.7922 28.8169 19.6548 33.2508 17.561H49.8707C51.0362 18.1113 52.1238 18.8182 53.105 19.669C53.3267 19.8613 53.6 19.9555 53.8721 19.9555C54.2001 19.9555 54.5264 19.8187 54.7581 19.5515C55.182 19.0626 55.1294 18.3224 54.6404 17.8983C54.1125 17.4405 53.5565 17.02 52.9787 16.6344C53.9921 15.8386 54.6451 14.6035 54.6451 13.218C54.6451 11.2292 53.301 9.54964 51.474 9.03682V4.89271C51.4735 2.19487 49.2788 0 46.5808 0H36.5399C33.8421 0 31.6472 2.19487 31.6472 4.89271V9.03714C29.82 9.54996 28.4759 11.2295 28.4759 13.2183C28.4759 14.6036 29.1286 15.8385 30.1417 16.6343C28.3725 17.8143 26.8376 19.3285 25.6287 21.1049C23.8685 23.6914 22.8808 26.7181 22.7726 29.8575C22.5527 36.202 22.4494 42.6153 22.4638 48.9629C20.8235 47.6193 18.9563 46.7795 16.9264 46.7795C14.077 46.7795 11.1937 48.524 8.80761 51.6917C8.41807 52.2086 8.52151 52.9434 9.03855 53.3328C9.55558 53.7223 10.2902 53.6189 10.6796 53.1019C11.799 51.6159 14.099 49.1232 16.9266 49.1232C19.1289 49.1232 21.4425 50.6656 23.4415 53.4659C25.0243 55.6835 26.2384 58.4577 26.8137 61.1073H7.03821C7.33759 59.7323 7.81369 58.3074 8.4412 56.9204C8.70792 56.3307 8.4462 55.6364 7.8565 55.3696C7.26696 55.1028 6.57258 55.3646 6.3057 55.9543C5.53616 57.6554 4.97334 59.4166 4.64928 61.1071H3.0402C1.36377 61.1071 0 62.4709 0 64.1473C0 65.8236 1.36393 67.1875 3.0402 67.1875H3.61614C3.81067 68.9828 4.13865 70.7721 4.45943 72.5118C4.68803 73.7515 4.92444 75.0335 5.10413 76.2829C5.34757 77.97 6.69633 79.2826 8.38479 79.4753C11.4573 79.8245 14.1904 79.9992 16.9247 79.9992C19.6549 79.9992 22.3862 79.8252 25.4563 79.4769C26.0167 79.4131 26.5381 79.225 26.9961 78.9436C28.192 79.6366 29.5395 79.9997 30.9425 79.9997H41.5614L41.5584 79.9989C44.2934 79.9991 47.028 79.8245 50.1021 79.4752C50.9162 79.3823 51.6498 79.0272 52.2203 78.497C55.1197 79.498 58.1356 79.99 61.1382 79.99C67.2451 79.99 73.2941 77.9614 78.1813 74.0749C79.9585 72.6629 80.507 70.1607 79.4851 68.1252ZM33.991 4.89271C33.991 3.48723 35.1344 2.34378 36.5399 2.34378H46.5808C47.9863 2.34378 49.1297 3.48723 49.1297 4.89271V8.8751H33.991V4.89271ZM32.8191 11.2189H50.3016C51.4042 11.2189 52.3009 12.1158 52.3009 13.2181C52.3009 14.3206 51.404 15.2175 50.3016 15.2175H32.8191C31.7166 15.2175 30.8197 14.3206 30.8197 13.2181C30.8197 12.1158 31.7167 11.2189 32.8191 11.2189ZM37.4665 31.1388C38.3731 31.1833 39.109 31.8702 39.2162 32.7719C39.5221 35.3449 39.5221 37.9542 39.2162 40.527C39.109 41.4288 38.3729 42.1158 37.4659 42.1603C33.2697 42.3669 29.0276 42.4272 24.8368 42.3436C24.877 38.5428 24.959 34.7362 25.0827 30.9505C29.199 30.8749 33.3589 30.9369 37.4665 31.1388ZM58.3394 42.5499C58.8897 41.4563 59.9493 40.8034 61.1741 40.8034H61.1744C62.3994 40.8036 63.4594 41.4569 64.0096 42.5508L65.3796 45.2777C63.6377 46.1779 62.4787 47.9976 62.4787 50.0357C62.4787 52.9875 64.8793 55.3889 67.8303 55.3889C68.6567 55.3889 69.4608 55.2002 70.1866 54.8438L76.7432 67.8886C76.7362 67.8942 76.7299 67.9005 76.7227 67.9061C73.4264 70.5279 69.4848 72.2815 65.3242 72.9774C61.5735 73.6048 57.7039 73.3654 54.0681 72.2929C54.3759 70.6218 54.6842 68.9077 54.8703 67.1875H55.4469C57.1233 67.1875 58.487 65.8237 58.487 64.1473C58.487 62.4709 57.1233 61.1071 55.4469 61.1071H53.8381C53.482 59.2798 52.8171 57.2827 51.8937 55.3749L58.3394 42.5499ZM35.0443 53.4663C37.0434 50.6656 39.3573 49.1232 41.5595 49.1232C43.7623 49.1232 46.0763 50.6656 48.0752 53.4663C49.6579 55.6836 50.8718 58.4579 51.447 61.1074H31.672C32.2472 58.4582 33.4613 55.6839 35.0443 53.4663ZM2.34378 64.1476C2.34378 63.7636 2.65628 63.4512 3.0402 63.4512H55.4469C55.8309 63.4512 56.1433 63.7636 56.1433 64.1476C56.1433 64.5315 55.8309 64.844 55.4469 64.844H3.0402C2.65613 64.8439 2.34378 64.5315 2.34378 64.1476ZM28.5308 77.1062C28.6325 76.8447 28.7081 76.5698 28.7494 76.2828C28.8589 75.5145 28.9889 74.599 29.1248 73.6221C29.1342 73.5559 29.1392 73.5193 29.2431 73.5193C29.3472 73.5193 29.3522 73.5559 29.3614 73.6212C29.4975 74.5992 29.6275 75.5146 29.7372 76.2842C29.8058 76.7606 29.9655 77.2056 30.1941 77.6056C29.6141 77.5279 29.0548 77.36 28.5308 77.1062ZM49.8368 77.1468C43.8859 77.8231 39.2479 77.8236 33.2952 77.1484C32.6572 77.0757 32.148 76.5832 32.0572 75.952C31.948 75.1859 31.8185 74.2732 31.6825 73.297C31.5075 72.0479 30.5042 71.1755 29.243 71.1757C27.9817 71.1757 26.9786 72.048 26.8035 73.298C26.6678 74.2732 26.5382 75.186 26.4292 75.9507C26.3382 76.5832 25.829 77.0757 25.1915 77.1484C19.2377 77.8236 14.5997 77.8231 8.64995 77.1468C8.01947 77.075 7.51525 76.5821 7.42384 75.9489C7.23759 74.6542 6.99696 73.349 6.76414 72.0869C6.4668 70.4747 6.16351 68.8192 5.97445 67.1877H52.5118C52.3224 68.8236 52.0184 70.4836 51.7204 72.1002C51.4885 73.3584 51.2487 74.6592 51.0624 75.9498C50.9712 76.5828 50.467 77.075 49.8368 77.1468ZM76.7227 72.2405C70.1609 77.4586 61.3082 79.0098 53.3595 76.4061C53.3667 76.3654 53.3764 76.3257 53.3823 76.2848C53.4621 75.7318 53.5539 75.1724 53.6501 74.6132C56.0986 75.3104 58.64 75.664 61.186 75.664C62.6991 75.664 64.2138 75.5395 65.7109 75.2892C70.0406 74.5649 74.1521 72.7918 77.649 70.1504C77.694 70.9393 77.3662 71.7293 76.7227 72.2405Z" fill="#3BB77E"/>
<path d="M62.2663 67.7178C63.056 68.8663 64.2457 69.6385 65.6161 69.8923C65.9368 69.9517 66.2582 69.981 66.5772 69.981C67.6225 69.981 68.6427 69.6663 69.5227 69.0613C70.6713 68.2717 71.4435 67.082 71.6972 65.7115C71.9511 64.341 71.6558 62.9537 70.8663 61.8051C70.0766 60.6565 68.8869 59.8843 67.5164 59.6306C66.1455 59.3768 64.7586 59.672 63.61 60.4615C62.4614 61.2512 61.6893 62.4409 61.4355 63.8113C61.1814 65.182 61.4766 66.5693 62.2663 67.7178ZM63.7399 64.2381C63.8797 63.4831 64.3052 62.8277 64.9378 62.3927C65.4225 62.0595 65.9844 61.8862 66.5602 61.8862C66.736 61.8862 66.9132 61.9024 67.0896 61.9351C67.8446 62.0749 68.4999 62.5002 68.935 63.1331C69.37 63.7657 69.5325 64.5299 69.3928 65.2849C69.253 66.0399 68.8275 66.6952 68.1949 67.1302C67.5621 67.5652 66.7977 67.7277 66.0432 67.5881C65.2882 67.4482 64.6328 67.0229 64.1977 66.3901C63.7627 65.7573 63.6 64.9931 63.7399 64.2381Z" fill="#3BB77E"/>
<path d="M57.345 60.6886C57.5787 60.7319 57.8131 60.7533 58.0458 60.7533C58.8078 60.7533 59.5515 60.5237 60.1931 60.0828C61.0304 59.507 61.5934 58.6397 61.7784 57.6406C61.9636 56.6414 61.7483 55.63 61.1726 54.7925C60.597 53.955 59.7295 53.392 58.7304 53.207C56.6678 52.8253 54.6789 54.1925 54.297 56.2551C53.9148 58.3178 55.2823 60.3067 57.345 60.6886ZM56.6014 56.6819C56.748 55.89 57.5117 55.3647 58.3036 55.5117C58.6872 55.5828 59.0201 55.7989 59.2412 56.1205C59.4623 56.442 59.5448 56.8303 59.4739 57.2139C59.4028 57.5975 59.1867 57.9306 58.8651 58.1515C58.5437 58.3726 58.1558 58.4553 57.7717 58.3842C56.9798 58.2373 56.4548 57.4737 56.6014 56.6819Z" fill="#3BB77E"/>
</svg>
