<svg width="80" height="80" viewBox="0 0 80 80" fill="none" xmlns="http://www.w3.org/2000/svg">
<g clip-path="url(#clip0_31_146)">
<path d="M22.5 56.9999C20.1 56.5999 18.8333 57.4999 18.5 57.9999L18 58.4999C17.5 59.1666 16.5 60.5999 16.5 60.9999V63.9999C16.5 64.4999 16.5 65.9999 17 66.9999C17.5 67.9999 17.5 68.4999 18 68.9999C18.5 69.4999 19 69.9999 19.5 69.9999C20 69.9999 22.5 70.4999 23 70.4999H28.5C30 70.4999 30.5 69.9999 31.5 69.9999C32.5 69.9999 33.5 69.4999 33.5 68.9999C33.5 68.4999 34 67.9999 34.5 67.4999C35 66.9999 34.5 65.9999 35 65.1753C35.5 64.3506 35 63.9999 35 63.4999V60.9999C35 60.4999 34.5 59.9999 34.5 59.4999C34.5 58.9999 33.5 58.4999 33 57.9999C32.6 57.5999 31.5 57.1666 31 56.9999C29.1667 57.1666 24.9 57.3999 22.5 56.9999Z" fill="#FDC040"/>
<path d="M67 31C59.8 33.8 46 32.1667 40 31L38.5 32L36 36L34.5 39.5C36.1 39.9 40.8333 44 43 46L44.5 49C48.1 49.4 49 52.5 49 54L49.5 64.5C56.3 66.5 72 63.3333 79 61.5C79.4 60.7 77.8333 52.1667 77 48C75 42 69.5 34.1667 67 31Z" fill="#FDC040"/>
<path d="M74.0944 38.9178C71.7063 34.5531 69.3323 31.7326 68.4772 30.7777V24.3355L79.5713 15.226C79.8354 15.0089 79.9918 14.6875 79.9992 14.3456C80.0067 14.0037 79.8643 13.6758 79.6098 13.4476L71.2157 5.92389C70.7338 5.49199 69.9928 5.53262 69.5608 6.01436C69.1287 6.49625 69.1694 7.23722 69.6513 7.66927L77.0283 14.2814L68.4776 21.3025V16.5098C68.4776 15.8626 67.9531 15.3378 67.3057 15.3378C66.6583 15.3378 66.1338 15.8626 66.1338 16.5098L66.1332 30.2442C57.7655 31.5985 49.2967 31.5983 40.9291 30.2439V16.5098C40.9291 15.8626 40.4045 15.3378 39.7571 15.3378C39.1098 15.3378 38.5852 15.8626 38.5852 16.5098V21.3029L30.0339 14.2814L39.1566 6.10342C40.4987 4.89994 42.2319 4.39976 43.8998 4.5979C44.2432 6.07327 45.032 9.16792 46.2433 12.2509C48.2337 17.3168 50.5554 20.3454 53.1436 21.2521C53.2691 21.296 53.4 21.3181 53.531 21.3181C53.6619 21.3181 53.793 21.296 53.9183 21.2521C56.5065 20.3454 58.8283 17.3168 60.8192 12.251C62.0285 9.17386 62.8163 6.08733 63.1612 4.60837C64.1937 4.48492 65.26 4.62305 66.2513 5.04745C66.8468 5.3023 67.5353 5.02619 67.79 4.43133C68.0448 3.8363 67.7689 3.14753 67.174 2.89283C64.1634 1.60387 60.6536 2.19593 58.2315 4.40054L57.15 5.38496C55.0866 7.26378 51.9761 7.26378 49.9135 5.38496L48.8322 4.40054C45.6389 1.49356 40.8065 1.47559 37.5919 4.35851L27.4523 13.4479C27.1976 13.6761 27.0554 14.0042 27.0629 14.3459C27.0702 14.6878 27.2266 15.0092 27.4907 15.2263L38.5849 24.3359V30.777C37.8166 31.6321 35.8421 33.967 33.7377 37.5475C31.9554 36.5977 30.0705 35.66 28.1612 34.7108C26.4927 33.8811 24.8122 33.0454 23.199 32.1968C24.7756 30.2225 25.9918 27.9877 26.5247 25.3678C27.3391 21.364 26.1478 17.7876 23.2563 15.5555C20.5151 13.4395 16.7401 12.9678 13.8624 14.3817C12.3198 15.1396 9.73206 17.1065 9.73206 21.7636C9.73206 24.7115 11.6042 27.4983 15.4557 30.2834C16.6604 31.1546 18.0149 31.9983 19.4565 32.8217C17.6692 34.5797 15.6181 36.1444 13.6803 37.6223C9.50846 40.8043 5.55033 43.8257 5.44798 47.8965C2.8957 48.5084 0.926404 50.6367 0.583578 53.3175C-0.195828 59.4208 -0.195828 65.6101 0.583578 71.7138C0.977343 74.7913 3.51572 77.1432 6.61959 77.3059C12.843 77.6304 19.1101 77.7926 25.3774 77.7926C31.6445 77.7926 37.9121 77.6303 44.1356 77.3059C47.2402 77.1431 49.7778 74.791 50.1697 71.7138C50.4032 69.889 50.5652 68.0565 50.6591 66.2209C51.6126 66.2495 52.574 66.2648 53.531 66.2648C68.83 66.2648 78.8116 62.6852 79.2291 62.5328C79.6915 62.3639 79.9992 61.9242 79.9992 61.432C79.9995 51.7438 76.7884 43.8413 74.0944 38.9178ZM48.3356 7.11721C51.297 9.8156 55.7651 9.8156 58.7283 7.11753L59.8096 6.13327C60.0293 5.93326 60.2617 5.75185 60.504 5.58903C60.097 7.14159 59.4726 9.27058 58.6383 11.3933C56.6848 16.3643 54.8404 18.227 53.5314 18.8756C52.2226 18.227 50.3782 16.3643 48.4251 11.3933C47.591 9.27027 46.9665 7.13987 46.5594 5.58668C46.8007 5.74966 47.0332 5.93154 47.2548 6.13311L48.3356 7.11721ZM12.0765 21.7629C12.0765 19.2163 13.0516 17.3911 14.8965 16.4846C15.6681 16.1055 16.5498 15.9216 17.4574 15.9216C18.974 15.9216 20.5622 16.4355 21.8247 17.4101C23.0924 18.3886 25.0903 20.6629 24.2286 24.8998C23.7562 27.2224 22.6005 29.2429 21.0923 31.0544C16.0273 28.216 12.0765 25.2026 12.0765 21.7629ZM6.74179 50.0667C8.83077 49.9583 10.9205 49.8676 12.9531 49.7973C13.6 49.7748 14.1061 49.2325 14.0836 48.5856C14.0611 47.9385 13.5228 47.4344 12.8719 47.4549C11.2143 47.5122 9.51877 47.5836 7.81683 47.6665C8.11871 44.8142 11.3829 42.322 15.1023 39.4854C17.2872 37.8187 19.6067 36.0496 21.6003 34.0009C23.3962 34.958 25.2713 35.8905 27.118 36.8088C28.9666 37.7281 30.8301 38.6549 32.5975 39.5979C31.4365 41.8037 30.2947 44.3707 29.3497 47.2627C25.4074 47.2188 21.4716 47.2358 17.5652 47.3216C16.918 47.3358 16.405 47.8718 16.4192 48.519C16.4334 49.1662 16.9667 49.6845 17.6164 49.6648C26.3527 49.4731 35.2341 49.6084 44.014 50.0667C45.9853 50.1689 47.5967 51.6605 47.8454 53.614C48.01 54.9002 48.1365 56.1904 48.2293 57.4828C48.1346 58.7797 48.006 60.0673 47.8454 61.3129C47.5968 63.2649 45.985 64.7557 44.0121 64.8581C41.3586 64.9967 38.6929 65.1046 36.0648 65.1835C36.1211 63.5286 36.0846 61.8669 35.952 60.2213C35.7728 57.9956 33.9672 56.2257 31.7524 56.1046C27.9603 55.8971 24.1148 55.8969 20.3236 56.1046C18.1086 56.2257 16.3032 57.9956 16.1239 60.2213C15.9903 61.8794 15.9542 63.554 16.0123 65.2215C12.9261 65.1393 9.81472 65.019 6.74179 64.8581C4.76952 64.7559 3.15758 63.265 2.90914 61.3125C2.75194 60.0815 2.62303 58.7981 2.5249 57.4968C2.61772 56.1998 2.74429 54.9049 2.90914 53.614C3.15883 51.6608 4.77077 50.1689 6.74179 50.0667ZM34.6599 40.7348C38.4565 42.9074 41.5241 45.1801 42.5549 47.651C38.9819 47.4804 35.3957 47.3621 31.8106 47.2978C32.6554 44.8513 33.6496 42.6517 34.6599 40.7348ZM33.6156 66.9977C33.53 68.0604 32.6739 68.9049 31.6243 68.9624C31.6242 68.9624 31.6242 68.9624 31.6242 68.9624C27.9173 69.1653 24.1586 69.1653 20.4514 68.9624C19.4018 68.9049 18.5457 68.0604 18.46 66.9977C18.2839 64.812 18.2839 62.5953 18.46 60.4096C18.5457 59.3469 19.4018 58.5023 20.4515 58.4448C22.3049 58.3434 24.1714 58.2927 26.0378 58.2927C27.9043 58.2927 29.7708 58.3434 31.6243 58.4448C32.6739 58.5023 33.53 59.3469 33.6156 60.4096C33.7917 62.5953 33.7917 64.812 33.6156 66.9977ZM44.0137 74.9647C31.6477 75.6094 19.108 75.6094 6.74257 74.9647C4.77124 74.8613 3.15883 73.3689 2.90914 71.4161C2.65069 69.392 2.48287 67.358 2.40162 65.3211C3.49322 66.4155 4.97719 67.1136 6.61991 67.1988C9.78581 67.3647 12.9931 67.4879 16.1721 67.5705C16.5158 69.6125 18.2379 71.1888 20.3234 71.3028C22.2194 71.4066 24.1287 71.4585 26.0378 71.4585C27.947 71.4585 29.8564 71.4066 31.7521 71.3028C33.8505 71.188 35.5804 69.5931 35.9092 67.5332C38.6272 67.4533 41.3874 67.3424 44.1337 67.1988C45.7774 67.1136 47.262 66.415 48.3537 65.3203C48.2723 67.3575 48.1042 69.392 47.8453 71.4166C47.5965 73.3692 45.985 74.8613 44.0137 74.9647ZM73.8094 61.6368C73.5683 58.1137 73.1228 54.6034 72.4806 51.1824C72.3612 50.5463 71.7493 50.1276 71.1126 50.2469C70.4765 50.3662 70.0575 50.9788 70.1771 51.6149C70.8238 55.0605 71.264 58.5999 71.4927 62.1501C70.5904 62.335 69.5672 62.527 68.4348 62.7139C68.2931 58.0009 67.7901 53.3081 66.9341 48.7445C66.8148 48.1083 66.2022 47.6897 65.5663 47.8086C64.9301 47.928 64.5112 48.5404 64.6306 49.1765C65.4811 53.7122 65.9747 58.3797 66.1008 63.0664C62.6065 63.546 58.3391 63.9207 53.5311 63.9207C52.6015 63.9207 51.6676 63.906 50.7413 63.8783C50.8076 60.3513 50.618 56.8203 50.17 53.3178C49.8186 50.5581 47.7428 48.3843 45.0808 47.8469C44.2204 44.2659 40.5437 41.3892 35.8046 38.6847C37.6777 35.5144 39.4301 33.3759 40.1953 32.4985C44.6217 33.2351 49.0767 33.6045 53.5317 33.6045C57.9864 33.6045 62.4411 33.2353 66.8674 32.4987C67.7468 33.5043 69.9236 36.1632 72.0764 40.1135C74.543 44.6396 77.4688 51.8136 77.6467 60.5893C76.8845 60.8298 75.5776 61.2146 73.8094 61.6368Z" fill="#3BB77E"/>
<path d="M30.7402 60.2222C29.1748 60.149 27.5927 60.1119 26.0375 60.1119C24.4821 60.1119 22.8999 60.149 21.3345 60.2222C20.7367 60.2502 20.256 60.7241 20.2195 61.3217C20.1234 62.902 20.1234 64.5049 20.2195 66.0854C20.2559 66.683 20.7367 67.1569 21.3345 67.1849C22.8986 67.258 24.481 67.2952 26.0375 67.2952C27.5938 67.2952 29.1761 67.2581 30.7402 67.1849C31.338 67.1569 31.8187 66.683 31.8552 66.0854C31.9513 64.5049 31.9513 62.9022 31.8552 61.3217C31.8188 60.7243 31.3382 60.2502 30.7402 60.2222ZM29.5647 64.8877C27.2091 64.9723 24.8656 64.9723 22.5103 64.8877C22.4852 64.0994 22.4852 63.3078 22.5103 62.5195C24.8671 62.4348 27.2079 62.4348 29.5647 62.5195C29.5898 63.3078 29.5898 64.0994 29.5647 64.8877Z" fill="#3BB77E"/>
</g>
<defs>
<clipPath id="clip0_31_146">
<rect width="80" height="80" fill="white"/>
</clipPath>
</defs>
</svg>
