<svg width="80" height="80" viewBox="0 0 80 80" fill="none" xmlns="http://www.w3.org/2000/svg">
<path d="M29 53C39.4934 53 48 44.9411 48 35C48 25.0589 39.4934 17 29 17C18.5066 17 10 25.0589 10 35C10 44.9411 18.5066 53 29 53Z" fill="#FDC040"/>
<path d="M29.2251 54.4913C40.6509 54.4913 49.9464 45.8928 49.9464 35.3237C49.9464 24.7546 40.6508 16.1561 29.2251 16.1561C17.7994 16.1561 8.50391 24.7546 8.50391 35.3237C8.50391 45.8928 17.7994 54.4913 29.2251 54.4913ZM29.2251 18.5021C39.3573 18.5021 47.6004 26.0482 47.6004 35.3237C47.6004 44.5992 39.3572 52.1453 29.2251 52.1453C19.093 52.1453 10.8499 44.5992 10.8499 35.3237C10.8499 26.0482 19.093 18.5021 29.2251 18.5021Z" fill="#3BB77E"/>
<path d="M35.5703 32.3495C35.5703 34.255 37.1205 35.8053 39.0261 35.8053C40.9316 35.8053 42.4818 34.255 42.4818 32.3495C42.4818 30.4441 40.9316 28.8938 39.0261 28.8938C37.1205 28.8938 35.5703 30.4441 35.5703 32.3495ZM39.026 31.2399C39.6378 31.2399 40.1356 31.7377 40.1356 32.3495C40.1356 32.9614 39.6378 33.4592 39.026 33.4592C38.414 33.4592 37.9161 32.9614 37.9161 32.3495C37.9161 31.7377 38.4141 31.2399 39.026 31.2399Z" fill="#3BB77E"/>
<path d="M33.4314 30.0822C35.3368 30.0822 36.8871 28.5319 36.8871 26.6265C36.8871 24.721 35.3368 23.1707 33.4314 23.1707C31.5259 23.1707 29.9756 24.721 29.9756 26.6265C29.9756 28.5319 31.5259 30.0822 33.4314 30.0822ZM33.4314 25.5166C34.0432 25.5166 34.541 26.0145 34.541 26.6263C34.541 27.2382 34.0432 27.736 33.4314 27.736C32.8195 27.736 32.3217 27.2382 32.3217 26.6263C32.3217 26.0145 32.8195 25.5166 33.4314 25.5166Z" fill="#3BB77E"/>
<path d="M19.4235 35.8053C21.3291 35.8053 22.8794 34.255 22.8794 32.3495C22.8794 30.4441 21.3291 28.8938 19.4235 28.8938C17.5181 28.8938 15.9678 30.4441 15.9678 32.3495C15.9678 34.255 17.5181 35.8053 19.4235 35.8053ZM19.4235 31.2399C20.0355 31.2399 20.5334 31.7377 20.5334 32.3495C20.5334 32.9614 20.0355 33.4592 19.4235 33.4592C18.8117 33.4592 18.3139 32.9614 18.3139 32.3495C18.3139 31.7377 18.8117 31.2399 19.4235 31.2399Z" fill="#3BB77E"/>
<path d="M25.0193 30.0822C26.9247 30.0822 28.475 28.5319 28.475 26.6265C28.475 24.721 26.9247 23.1707 25.0193 23.1707C23.1138 23.1707 21.5635 24.721 21.5635 26.6265C21.5635 28.5319 23.1138 30.0822 25.0193 30.0822ZM25.0193 25.5166C25.6311 25.5166 26.1289 26.0145 26.1289 26.6263C26.1289 27.2382 25.6311 27.736 25.0193 27.736C24.4074 27.736 23.9096 27.2382 23.9096 26.6263C23.9096 26.0145 24.4074 25.5166 25.0193 25.5166Z" fill="#3BB77E"/>
<path d="M23.3008 34.769C23.1378 35.5358 22.7022 36.2371 22.0411 36.7972C20.5562 38.055 19.7802 39.8924 19.9119 41.8382C20.1171 44.8691 22.5596 47.2887 25.5934 47.4662C26.5939 47.5244 27.5981 47.3353 28.4984 46.9182C28.9532 46.7075 29.4964 46.7075 29.9512 46.9182C30.7448 47.2859 31.6192 47.4765 32.5004 47.4765C32.619 47.4765 32.7378 47.4731 32.8564 47.4662C35.8901 47.2885 38.3325 44.869 38.5377 41.8381C38.6694 39.8922 37.8933 38.0548 36.4086 36.7972C35.7475 36.2371 35.3119 35.5358 35.1491 34.7691C34.8662 33.438 34.1609 32.2679 33.1094 31.3853C30.8946 29.5262 27.5548 29.5262 25.3401 31.3853C24.2888 32.2681 23.5837 33.4381 23.3008 34.769ZM26.8486 33.1821C28.2032 32.0449 30.2463 32.0449 31.6009 33.1821C32.2478 33.725 32.6811 34.4424 32.854 35.2566C33.126 36.5363 33.8306 37.6881 34.892 38.5872C35.8021 39.3581 36.2777 40.4853 36.1968 41.6796C36.0712 43.5346 34.5762 45.0154 32.7191 45.1241C32.0956 45.1605 31.4955 45.0481 30.9372 44.7894C30.393 44.5373 29.8089 44.4113 29.2247 44.4113C28.6406 44.4113 28.0562 44.5374 27.5121 44.7894C26.9539 45.0481 26.3541 45.1608 25.7304 45.1241C23.8732 45.0154 22.3782 43.5346 22.2526 41.6798C22.1717 40.4853 22.6474 39.3581 23.5575 38.5872C24.6188 37.6882 25.3236 36.5365 25.5955 35.2566C25.7687 34.4425 26.2019 33.7251 26.8486 33.1821Z" fill="#3BB77E"/>
<path d="M75.3792 62.801C77.8705 59.6224 79.2415 55.6681 79.2415 51.616C79.2415 41.6044 71.0964 33.4592 61.0847 33.4592C59.2131 33.4592 57.3844 33.7405 55.6277 34.2947C55.5013 28.4952 55.2006 22.7034 54.7237 16.9426C54.5532 14.8963 54.9997 12.8999 56.0151 11.1692C57.395 8.81548 58.6308 5.60031 56.6801 3.6495C55.844 2.814 53.7005 1.60282 44.7774 0.73478C39.2076 0.193001 33.0915 0 29.2249 0C25.3583 0 19.2422 0.193001 13.6722 0.734936C4.74916 1.60297 2.6058 2.81415 1.76936 3.64997C-0.181132 5.60031 1.0546 8.81548 2.4347 11.1697C3.44991 12.9001 3.89644 14.8964 3.7258 16.9423C3.65964 17.7334 3.59411 18.5756 3.51998 19.5932C3.47274 20.2393 3.95837 20.8014 4.60447 20.8485C5.25073 20.8959 5.81269 20.4101 5.85976 19.764C5.93343 18.755 5.99818 17.9205 6.06371 17.1377C6.2747 14.6068 5.71947 12.1325 4.45839 9.98272C4.39427 9.87324 4.33421 9.7661 4.27446 9.65912C7.82574 8.16375 19.423 7.18858 29.225 7.18858C32.9559 7.18858 38.8762 7.37251 44.3029 7.88848C50.2959 8.45842 52.9767 9.16676 54.1719 9.66506C54.1132 9.77001 54.0544 9.87511 53.9914 9.98256C52.7302 12.1325 52.1748 14.6066 52.3856 17.137C53.6018 31.8292 53.6658 46.7252 52.5828 61.4322C50.066 61.4316 47.5487 61.4514 45.0447 61.4924C44.7233 57.5019 41.3732 54.3532 37.3014 54.3532C33.0178 54.3532 29.5328 57.8382 29.5328 62.1218C29.5328 63.9933 30.2029 65.7778 31.4033 67.1767C31.103 67.5266 30.836 67.9005 30.6044 68.294C23.5878 68.3455 16.4798 68.003 9.46689 67.2721C7.63338 67.0821 6.19368 65.6055 6.04354 63.7604C4.97405 50.7091 4.80999 37.4696 5.55587 24.4095C5.59278 23.7627 5.09839 23.2084 4.45167 23.1714C3.8051 23.1348 3.25065 23.6289 3.21358 24.2756C2.46144 37.4438 2.62692 50.7927 3.70516 63.951C3.94664 66.921 6.26814 69.2989 9.22431 69.6053C15.8589 70.2968 22.577 70.6462 29.2275 70.646C29.3844 70.646 29.541 70.6438 29.6978 70.6434C29.5901 71.1609 29.5327 71.6922 29.5327 72.2313C29.5327 76.5149 33.0176 79.9998 37.3012 79.9998C41.373 79.9998 44.7231 76.8513 45.0445 72.8607C49.9783 72.9417 54.9628 72.9417 59.8953 72.8607C60.2167 76.8511 63.567 79.9998 67.6388 79.9998C68.8888 79.9998 70.1328 79.6953 71.2362 79.119C71.8105 78.8192 72.0329 78.1105 71.7331 77.5362C71.433 76.9619 70.7243 76.7393 70.1503 77.0395C69.3697 77.447 68.5247 77.6538 67.6388 77.6538C64.6488 77.6538 62.2162 75.2213 62.2162 72.2313C62.2162 72.0956 62.2234 71.9476 62.2388 71.7656C62.2668 71.4346 62.1531 71.1073 61.926 70.8648C61.6989 70.6224 61.3799 70.4876 61.0475 70.494C55.3567 70.6027 49.5848 70.6027 43.8926 70.494C43.5622 70.4877 43.2414 70.6224 43.0141 70.8648C42.787 71.1073 42.6733 71.4346 42.7013 71.7656C42.7166 71.9464 42.7238 72.0945 42.7238 72.2313C42.7238 75.2213 40.2913 77.6538 37.3014 77.6538C34.3114 77.6538 31.8789 75.2213 31.8789 72.2313C31.8789 70.6255 32.5864 69.1105 33.8203 68.0748C34.0857 67.8519 34.2392 67.523 34.2392 67.1764C34.2392 66.8298 34.0859 66.5009 33.8203 66.278C32.5864 65.2423 31.8789 63.7274 31.8789 62.1214C31.8789 59.1315 34.3114 56.699 37.3014 56.699C40.2913 56.699 42.7238 59.1315 42.7238 62.1214C42.7238 62.2583 42.7166 62.4064 42.7013 62.5872C42.6733 62.9182 42.787 63.2455 43.0141 63.4879C43.2414 63.7304 43.5618 63.866 43.8926 63.8588C49.5846 63.7502 55.3565 63.7502 61.0475 63.8588C61.3802 63.866 61.6989 63.7304 61.926 63.4879C62.1531 63.2455 62.2668 62.9182 62.2388 62.5872C62.2234 62.4052 62.2162 62.2572 62.2162 62.1214C62.2162 59.1315 64.6488 56.699 67.6388 56.699C70.6295 56.699 73.0629 59.1315 73.0629 62.1214C73.0629 63.7277 72.355 65.2425 71.1203 66.2775C70.8546 66.5004 70.701 66.8295 70.701 67.1764C70.701 67.5233 70.8544 67.8524 71.1203 68.0752C72.355 69.1103 73.0629 70.6252 73.0629 72.2313C73.0629 72.9161 72.9371 73.5831 72.689 74.2137C72.4518 74.8167 72.7485 75.4975 73.3513 75.7347C73.9542 75.9718 74.6352 75.6753 74.8723 75.0725C75.2282 74.1673 75.4089 73.2115 75.4089 72.2315C75.4089 70.3596 74.7385 68.5751 73.5375 67.1765C74.5925 65.9485 75.2376 64.4223 75.3792 62.801ZM29.2252 4.84239C29.013 4.84239 9.65237 4.87617 3.32651 7.53674C3.00338 6.49478 3.02653 5.71073 3.42817 5.30909C3.74551 4.99191 5.43858 3.89302 13.8994 3.06987C19.3859 2.53623 25.4135 2.34604 29.2249 2.34604C33.0363 2.34604 39.0639 2.53623 44.5503 3.06987C53.0112 3.89302 54.7043 4.99191 55.0213 5.30878C55.4233 5.71073 55.4466 6.49462 55.1235 7.53658C48.7974 4.87632 29.4376 4.84239 29.2252 4.84239ZM67.6391 54.3531C63.5673 54.3531 60.217 57.5016 59.8956 61.4922C58.2467 61.4652 56.5913 61.4506 54.9345 61.4416C55.5331 53.2487 55.7802 44.9985 55.671 36.7567C57.4001 36.1251 59.2175 35.8053 61.0847 35.8053C69.8028 35.8053 76.8955 42.898 76.8955 51.616C76.8955 54.3243 76.1928 56.983 74.8857 59.324C73.7601 56.4192 70.9372 54.3531 67.6391 54.3531Z" fill="#3BB77E"/>
</svg>
