<svg width="20" height="20" viewBox="0 0 20 20" fill="none" xmlns="http://www.w3.org/2000/svg">
<path d="M19.9334 19.5999V12.5679C19.9334 9.11192 19.1894 6.47192 15.1574 6.47192C13.2134 6.47192 11.9174 7.52792 11.3894 8.53592H11.3414V6.78392H7.52539V19.5999H11.5094V13.2399C11.5094 11.5599 11.8214 9.95192 13.8854 9.95192C15.9254 9.95192 15.9494 11.8479 15.9494 13.3359V19.5759H19.9334V19.5999Z" fill="white"/>
<path d="M1.04541 6.78394H5.02941V19.5999H1.04541V6.78394Z" fill="white"/>
<path d="M3.0374 0.399902C1.7654 0.399902 0.733398 1.4319 0.733398 2.7039C0.733398 3.9759 1.7654 5.0319 3.0374 5.0319C4.3094 5.0319 5.3414 3.9759 5.3414 2.7039C5.3414 1.4319 4.3094 0.399902 3.0374 0.399902Z" fill="white"/>
</svg>
